<svg width="30" height="30" viewBox="0 0 30 30" fill="none" xmlns="http://www.w3.org/2000/svg">
<path d="M2.5 14.45V16.7876C2.5 20.5376 5 23.0376 8.75 23.0376H13.75L19.3125 26.7375C20.1375 27.2875 21.25 26.7001 21.25 25.7001V23.0376C25 23.0376 27.5 20.5376 27.5 16.7876V9.28748C27.5 5.53748 25 3.03748 21.25 3.03748H8.75C5 3.03748 2.5 5.53748 2.5 9.28748" stroke="#65B1F9" stroke-width="1.5" stroke-miterlimit="10" stroke-linecap="round" stroke-linejoin="round"/>
<path d="M15.0007 14.2V13.9375C15.0007 13.0875 15.5258 12.6375 16.0508 12.275C16.5633 11.925 17.0757 11.475 17.0757 10.65C17.0757 9.49999 16.1507 8.57495 15.0007 8.57495C13.8507 8.57495 12.9258 9.49999 12.9258 10.65" stroke="#65B1F9" stroke-width="1.5" stroke-linecap="round" stroke-linejoin="round"/>
<path d="M14.9944 17.1875H15.0056" stroke="#65B1F9" stroke-width="1.5" stroke-linecap="round" stroke-linejoin="round"/>
</svg>
