<svg width="30" height="30" viewBox="0 0 30 30" fill="none" xmlns="http://www.w3.org/2000/svg">
<path d="M24.3879 7.3125L16.9629 3.025C15.7504 2.325 14.2504 2.325 13.0254 3.025L5.61289 7.3125C4.40039 8.0125 3.65039 9.3125 3.65039 10.725V19.275C3.65039 20.675 4.40039 21.975 5.61289 22.6875L13.0379 26.975C14.2504 27.675 15.7504 27.675 16.9754 26.975L24.4004 22.6875C25.6129 21.9875 26.3629 20.6875 26.3629 19.275V10.725C26.3504 9.3125 25.6004 8.025 24.3879 7.3125ZM15.0004 9.175C16.6129 9.175 17.9129 10.475 17.9129 12.0875C17.9129 13.7 16.6129 15 15.0004 15C13.3879 15 12.0879 13.7 12.0879 12.0875C12.0879 10.4875 13.3879 9.175 15.0004 9.175ZM18.3504 20.825H11.6504C10.6379 20.825 10.0504 19.7 10.6129 18.8625C11.4629 17.6 13.1129 16.75 15.0004 16.75C16.8879 16.75 18.5379 17.6 19.3879 18.8625C19.9504 19.6875 19.3504 20.825 18.3504 20.825Z" fill="#0481F4"/>
</svg>
