<svg width="30" height="30" viewBox="0 0 30 30" fill="none" xmlns="http://www.w3.org/2000/svg">
<path d="M13.0379 3.025C14.2504 2.325 15.7504 2.325 16.9754 3.025L24.4004 7.31249C25.6129 8.01249 26.3629 9.31254 26.3629 10.725V19.275C26.3629 20.675 25.6129 21.9751 24.4004 22.6876L16.9754 26.975C15.7629 27.675 14.2629 27.675 13.0379 26.975L5.61289 22.6876C4.40039 21.9876 3.65039 20.6875 3.65039 19.275V10.725C3.65039 9.32504 4.40039 8.02499 5.61289 7.31249L7.98789 5.93752" stroke="#65B1F9" stroke-width="1.5" stroke-linecap="round" stroke-linejoin="round"/>
<path d="M15.0004 13.75C16.6089 13.75 17.9129 12.446 17.9129 10.8375C17.9129 9.22893 16.6089 7.92502 15.0004 7.92502C13.3919 7.92502 12.0879 9.22893 12.0879 10.8375C12.0879 12.446 13.3919 13.75 15.0004 13.75Z" stroke="#65B1F9" stroke-width="1.5" stroke-linecap="round" stroke-linejoin="round"/>
<path d="M20 20.825C20 18.575 17.7625 16.75 15 16.75C12.2375 16.75 10 18.575 10 20.825" stroke="#65B1F9" stroke-width="1.5" stroke-linecap="round" stroke-linejoin="round"/>
</svg>
